# xmcd
#
# Track frame offsets: 
#        150
#        15350
#        33020
#        56032
#        72030
#        89690
#        106402
#        120795
#        138675
#        153277
#        171042
#
# Disc length: 2430 seconds
#
# Revision: 4
# Processed by: cddbd v1.5.2PL0 Copyright (c) Steve Scherf et al.
# Submitted via: ExactAudioCopy v1.0b1
#
DISCID=82097c0b
DTITLE=Joanna Connor - Believe It!
DYEAR=1989
DGENRE=Blues
TTITLE0=Texas Flyer
TTITLE1=He's Mine
TTITLE2=Doctor Feelgfood
TTITLE3=I'm Satisfied
TTITLE4=When You're Being Nice
TTITLE5=Pack It Up
TTITLE6=Everybody I Know
TTITLE7=Playing In the Dirt
TTITLE8=Soul's On Fire
TTITLE9=Somebody's On Your Case
TTITLE10=Good rockin' Daddy
EXTD=Blind Pig/BP73289
EXTT0=
EXTT1=
EXTT2=
EXTT3=
EXTT4=
EXTT5=
EXTT6=
EXTT7=
EXTT8=
EXTT9=
EXTT10=
PLAYORDER=
